<svg height="3214" width="720" xmlns="http://www.w3.org/2000/svg">
<rect height="3214" fill="#555" width="720"></rect>
<text fill="#7f7" font-family="Courier New" font-size="12" xml:space="preserve">
<tspan x="10" y="26">16 megabytes installed</tspan>
<tspan x="10" y="42"></tspan>
<tspan x="10" y="58">node_modules</tspan>
<tspan x="10" y="74">└─┬ gulp-server-livereload@1.9.2 </tspan>
<tspan x="10" y="90">  ├─┬ commander@2.9.0 </tspan>
<tspan x="10" y="106">  │ └── graceful-readlink@1.0.1 </tspan>
<tspan x="10" y="122">  ├─┬ connect@3.1.1 </tspan>
<tspan x="10" y="138">  │ ├─┬ debug@1.0.4 </tspan>
<tspan x="10" y="154">  │ │ └── ms@0.6.2 </tspan>
<tspan x="10" y="170">  │ ├── finalhandler@0.1.0 </tspan>
<tspan x="10" y="186">  │ ├── parseurl@1.3.1 </tspan>
<tspan x="10" y="202">  │ └── utils-merge@1.0.0 </tspan>
<tspan x="10" y="218">  ├── connect-inject@0.3.2 </tspan>
<tspan x="10" y="234">  ├─┬ glogg@1.0.0 </tspan>
<tspan x="10" y="250">  │ └── sparkles@1.0.0 </tspan>
<tspan x="10" y="266">  ├─┬ gulp-util@3.0.8 </tspan>
<tspan x="10" y="282">  │ ├── array-differ@1.0.0 </tspan>
<tspan x="10" y="298">  │ ├── array-uniq@1.0.3 </tspan>
<tspan x="10" y="314">  │ ├── beeper@1.1.1 </tspan>
<tspan x="10" y="330">  │ ├─┬ chalk@1.1.3 </tspan>
<tspan x="10" y="346">  │ │ ├── ansi-styles@2.2.1 </tspan>
<tspan x="10" y="362">  │ │ ├── escape-string-regexp@1.0.5 </tspan>
<tspan x="10" y="378">  │ │ ├─┬ has-ansi@2.0.0 </tspan>
<tspan x="10" y="394">  │ │ │ └── ansi-regex@2.1.1 </tspan>
<tspan x="10" y="410">  │ │ ├── strip-ansi@3.0.1 </tspan>
<tspan x="10" y="426">  │ │ └── supports-color@2.0.0 </tspan>
<tspan x="10" y="442">  │ ├── dateformat@2.0.0 </tspan>
<tspan x="10" y="458">  │ ├─┬ fancy-log@1.3.0 </tspan>
<tspan x="10" y="474">  │ │ └── time-stamp@1.0.1 </tspan>
<tspan x="10" y="490">  │ ├── has-gulplog@0.1.0 </tspan>
<tspan x="10" y="506">  │ ├── lodash._reescape@3.0.0 </tspan>
<tspan x="10" y="522">  │ ├── lodash._reevaluate@3.0.0 </tspan>
<tspan x="10" y="538">  │ ├── lodash._reinterpolate@3.0.0 </tspan>
<tspan x="10" y="554">  │ ├─┬ lodash.template@3.6.2 </tspan>
<tspan x="10" y="570">  │ │ ├── lodash._basecopy@3.0.1 </tspan>
<tspan x="10" y="586">  │ │ ├── lodash._basetostring@3.0.1 </tspan>
<tspan x="10" y="602">  │ │ ├── lodash._basevalues@3.0.0 </tspan>
<tspan x="10" y="618">  │ │ ├── lodash._isiterateecall@3.0.9 </tspan>
<tspan x="10" y="634">  │ │ ├─┬ lodash.escape@3.2.0 </tspan>
<tspan x="10" y="650">  │ │ │ └── lodash._root@3.0.1 </tspan>
<tspan x="10" y="666">  │ │ ├─┬ lodash.keys@3.1.2 </tspan>
<tspan x="10" y="682">  │ │ │ ├── lodash._getnative@3.9.1 </tspan>
<tspan x="10" y="698">  │ │ │ ├── lodash.isarguments@3.1.0 </tspan>
<tspan x="10" y="714">  │ │ │ └── lodash.isarray@3.0.4 </tspan>
<tspan x="10" y="730">  │ │ ├── lodash.restparam@3.6.1 </tspan>
<tspan x="10" y="746">  │ │ └── lodash.templatesettings@3.1.1 </tspan>
<tspan x="10" y="762">  │ ├── minimist@1.2.0 </tspan>
<tspan x="10" y="778">  │ ├─┬ multipipe@0.1.2 </tspan>
<tspan x="10" y="794">  │ │ └─┬ duplexer2@0.0.2 </tspan>
<tspan x="10" y="810">  │ │   └── readable-stream@1.1.14 </tspan>
<tspan x="10" y="826">  │ ├── object-assign@3.0.0 </tspan>
<tspan x="10" y="842">  │ ├── replace-ext@0.0.1 </tspan>
<tspan x="10" y="858">  │ ├─┬ through2@2.0.3 </tspan>
<tspan x="10" y="874">  │ │ ├─┬ readable-stream@2.2.9 </tspan>
<tspan x="10" y="890">  │ │ │ ├── buffer-shims@1.0.0 </tspan>
<tspan x="10" y="906">  │ │ │ ├── isarray@1.0.0 </tspan>
<tspan x="10" y="922">  │ │ │ ├── process-nextick-args@1.0.7 </tspan>
<tspan x="10" y="938">  │ │ │ ├── string_decoder@1.0.0 </tspan>
<tspan x="10" y="954">  │ │ │ └── util-deprecate@1.0.2 </tspan>
<tspan x="10" y="970">  │ │ └── xtend@4.0.1 </tspan>
<tspan x="10" y="986">  │ └─┬ vinyl@0.5.3 </tspan>
<tspan x="10" y="1002">  │   ├── clone@1.0.2 </tspan>
<tspan x="10" y="1018">  │   └── clone-stats@0.0.1 </tspan>
<tspan x="10" y="1034">  ├── gulplog@1.0.0 </tspan>
<tspan x="10" y="1050">  ├── lodash@4.17.4 </tspan>
<tspan x="10" y="1066">  ├── node-watch@0.3.5 </tspan>
<tspan x="10" y="1082">  ├─┬ node.extend@1.0.10 </tspan>
<tspan x="10" y="1098">  │ └── is@0.3.0 </tspan>
<tspan x="10" y="1114">  ├── open@0.0.5 </tspan>
<tspan x="10" y="1130">  ├── proxy-middleware@0.15.0 </tspan>
<tspan x="10" y="1146">  ├─┬ serve-index@1.1.6 </tspan>
<tspan x="10" y="1162">  │ ├─┬ accepts@1.0.7 </tspan>
<tspan x="10" y="1178">  │ │ ├── mime-types@1.0.2 </tspan>
<tspan x="10" y="1194">  │ │ └── negotiator@0.4.7 </tspan>
<tspan x="10" y="1210">  │ └── batch@0.5.1 </tspan>
<tspan x="10" y="1226">  ├─┬ serve-static@1.5.4 </tspan>
<tspan x="10" y="1242">  │ ├── escape-html@1.0.1 </tspan>
<tspan x="10" y="1258">  │ └─┬ send@0.8.5 </tspan>
<tspan x="10" y="1274">  │   ├── depd@0.4.4 </tspan>
<tspan x="10" y="1290">  │   ├── destroy@1.0.3 </tspan>
<tspan x="10" y="1306">  │   ├── fresh@0.2.2 </tspan>
<tspan x="10" y="1322">  │   ├── mime@1.2.11 </tspan>
<tspan x="10" y="1338">  │   ├─┬ on-finished@2.1.0 </tspan>
<tspan x="10" y="1354">  │   │ └── ee-first@1.0.5 </tspan>
<tspan x="10" y="1370">  │   └── range-parser@1.0.3 </tspan>
<tspan x="10" y="1386">  ├─┬ socket.io@1.7.3 </tspan>
<tspan x="10" y="1402">  │ ├─┬ debug@2.3.3 </tspan>
<tspan x="10" y="1418">  │ │ └── ms@0.7.2 </tspan>
<tspan x="10" y="1434">  │ ├─┬ engine.io@1.8.3 </tspan>
<tspan x="10" y="1450">  │ │ ├─┬ accepts@1.3.3 </tspan>
<tspan x="10" y="1466">  │ │ │ ├─┬ mime-types@2.1.15 </tspan>
<tspan x="10" y="1482">  │ │ │ │ └── mime-db@1.27.0 </tspan>
<tspan x="10" y="1498">  │ │ │ └── negotiator@0.6.1 </tspan>
<tspan x="10" y="1514">  │ │ ├── base64id@1.0.0 </tspan>
<tspan x="10" y="1530">  │ │ ├── cookie@0.3.1 </tspan>
<tspan x="10" y="1546">  │ │ ├─┬ debug@2.3.3 </tspan>
<tspan x="10" y="1562">  │ │ │ └── ms@0.7.2 </tspan>
<tspan x="10" y="1578">  │ │ ├─┬ engine.io-parser@1.3.2 </tspan>
<tspan x="10" y="1594">  │ │ │ ├── after@0.8.2 </tspan>
<tspan x="10" y="1610">  │ │ │ ├── arraybuffer.slice@0.0.6 </tspan>
<tspan x="10" y="1626">  │ │ │ ├── base64-arraybuffer@0.1.5 </tspan>
<tspan x="10" y="1642">  │ │ │ ├── blob@0.0.4 </tspan>
<tspan x="10" y="1658">  │ │ │ └── wtf-8@1.0.0 </tspan>
<tspan x="10" y="1674">  │ │ └─┬ ws@1.1.2 </tspan>
<tspan x="10" y="1690">  │ │   ├── options@0.0.6 </tspan>
<tspan x="10" y="1706">  │ │   └── ultron@1.0.2 </tspan>
<tspan x="10" y="1722">  │ ├─┬ has-binary@0.1.7 </tspan>
<tspan x="10" y="1738">  │ │ └── isarray@0.0.1 </tspan>
<tspan x="10" y="1754">  │ ├── object-assign@4.1.0 </tspan>
<tspan x="10" y="1770">  │ ├─┬ socket.io-adapter@0.5.0 </tspan>
<tspan x="10" y="1786">  │ │ └─┬ debug@2.3.3 </tspan>
<tspan x="10" y="1802">  │ │   └── ms@0.7.2 </tspan>
<tspan x="10" y="1818">  │ ├─┬ socket.io-client@1.7.3 </tspan>
<tspan x="10" y="1834">  │ │ ├── backo2@1.0.2 </tspan>
<tspan x="10" y="1850">  │ │ ├── component-bind@1.0.0 </tspan>
<tspan x="10" y="1866">  │ │ ├── component-emitter@1.2.1 </tspan>
<tspan x="10" y="1882">  │ │ ├─┬ debug@2.3.3 </tspan>
<tspan x="10" y="1898">  │ │ │ └── ms@0.7.2 </tspan>
<tspan x="10" y="1914">  │ │ ├─┬ engine.io-client@1.8.3 </tspan>
<tspan x="10" y="1930">  │ │ │ ├── component-emitter@1.2.1 </tspan>
<tspan x="10" y="1946">  │ │ │ ├── component-inherit@0.0.3 </tspan>
<tspan x="10" y="1962">  │ │ │ ├─┬ debug@2.3.3 </tspan>
<tspan x="10" y="1978">  │ │ │ │ └── ms@0.7.2 </tspan>
<tspan x="10" y="1994">  │ │ │ ├── has-cors@1.1.0 </tspan>
<tspan x="10" y="2010">  │ │ │ ├── parsejson@0.0.3 </tspan>
<tspan x="10" y="2026">  │ │ │ ├── parseqs@0.0.5 </tspan>
<tspan x="10" y="2042">  │ │ │ ├── xmlhttprequest-ssl@1.5.3 </tspan>
<tspan x="10" y="2058">  │ │ │ └── yeast@0.1.2 </tspan>
<tspan x="10" y="2074">  │ │ ├── indexof@0.0.1 </tspan>
<tspan x="10" y="2090">  │ │ ├── object-component@0.0.3 </tspan>
<tspan x="10" y="2106">  │ │ ├─┬ parseuri@0.0.5 </tspan>
<tspan x="10" y="2122">  │ │ │ └─┬ better-assert@1.0.2 </tspan>
<tspan x="10" y="2138">  │ │ │   └── callsite@1.0.0 </tspan>
<tspan x="10" y="2154">  │ │ └── to-array@0.1.4 </tspan>
<tspan x="10" y="2170">  │ └─┬ socket.io-parser@2.3.1 </tspan>
<tspan x="10" y="2186">  │   ├── component-emitter@1.1.2 </tspan>
<tspan x="10" y="2202">  │   ├─┬ debug@2.2.0 </tspan>
<tspan x="10" y="2218">  │   │ └── ms@0.7.1 </tspan>
<tspan x="10" y="2234">  │   └── json3@3.3.2 </tspan>
<tspan x="10" y="2250">  ├─┬ through2@0.5.1 </tspan>
<tspan x="10" y="2266">  │ ├─┬ readable-stream@1.0.34 </tspan>
<tspan x="10" y="2282">  │ │ ├── core-util-is@1.0.2 </tspan>
<tspan x="10" y="2298">  │ │ ├── inherits@2.0.3 </tspan>
<tspan x="10" y="2314">  │ │ └── string_decoder@0.10.31 </tspan>
<tspan x="10" y="2330">  │ └── xtend@3.0.0 </tspan>
<tspan x="10" y="2346">  └─┬ vinyl-fs@1.0.0 </tspan>
<tspan x="10" y="2362">    ├─┬ duplexify@3.5.0 </tspan>
<tspan x="10" y="2378">    │ ├─┬ end-of-stream@1.0.0 </tspan>
<tspan x="10" y="2394">    │ │ └─┬ once@1.3.3 </tspan>
<tspan x="10" y="2410">    │ │   └── wrappy@1.0.2 </tspan>
<tspan x="10" y="2426">    │ ├─┬ readable-stream@2.2.9 </tspan>
<tspan x="10" y="2442">    │ │ ├── isarray@1.0.0 </tspan>
<tspan x="10" y="2458">    │ │ └── string_decoder@1.0.0 </tspan>
<tspan x="10" y="2474">    │ └── stream-shift@1.0.0 </tspan>
<tspan x="10" y="2490">    ├─┬ glob-stream@4.1.1 </tspan>
<tspan x="10" y="2506">    │ ├─┬ glob@4.5.3 </tspan>
<tspan x="10" y="2522">    │ │ └── inflight@1.0.6 </tspan>
<tspan x="10" y="2538">    │ ├─┬ glob2base@0.0.12 </tspan>
<tspan x="10" y="2554">    │ │ └── find-index@0.1.1 </tspan>
<tspan x="10" y="2570">    │ ├─┬ minimatch@2.0.10 </tspan>
<tspan x="10" y="2586">    │ │ └─┬ brace-expansion@1.1.7 </tspan>
<tspan x="10" y="2602">    │ │   ├── balanced-match@0.4.2 </tspan>
<tspan x="10" y="2618">    │ │   └── concat-map@0.0.1 </tspan>
<tspan x="10" y="2634">    │ ├── ordered-read-streams@0.1.0 </tspan>
<tspan x="10" y="2650">    │ ├─┬ through2@0.6.5 </tspan>
<tspan x="10" y="2666">    │ │ └── readable-stream@1.0.34 </tspan>
<tspan x="10" y="2682">    │ └─┬ unique-stream@2.2.1 </tspan>
<tspan x="10" y="2698">    │   ├─┬ json-stable-stringify@1.0.1 </tspan>
<tspan x="10" y="2714">    │   │ └── jsonify@0.0.0 </tspan>
<tspan x="10" y="2730">    │   └─┬ through2-filter@2.0.0 </tspan>
<tspan x="10" y="2746">    │     └─┬ through2@2.0.3 </tspan>
<tspan x="10" y="2762">    │       └─┬ readable-stream@2.2.9 </tspan>
<tspan x="10" y="2778">    │         ├── isarray@1.0.0 </tspan>
<tspan x="10" y="2794">    │         └── string_decoder@1.0.0 </tspan>
<tspan x="10" y="2810">    ├─┬ glob-watcher@0.0.8 </tspan>
<tspan x="10" y="2826">    │ └─┬ gaze@0.5.2 </tspan>
<tspan x="10" y="2842">    │   └─┬ globule@0.1.0 </tspan>
<tspan x="10" y="2858">    │     ├─┬ glob@3.1.21 </tspan>
<tspan x="10" y="2874">    │     │ ├── graceful-fs@1.2.3 </tspan>
<tspan x="10" y="2890">    │     │ └── inherits@1.0.2 </tspan>
<tspan x="10" y="2906">    │     ├── lodash@1.0.2 </tspan>
<tspan x="10" y="2922">    │     └─┬ minimatch@0.2.14 </tspan>
<tspan x="10" y="2938">    │       ├── lru-cache@2.7.3 </tspan>
<tspan x="10" y="2954">    │       └── sigmund@1.0.1 </tspan>
<tspan x="10" y="2970">    ├─┬ graceful-fs@3.0.11 </tspan>
<tspan x="10" y="2986">    │ └── natives@1.1.0 </tspan>
<tspan x="10" y="3002">    ├─┬ merge-stream@0.1.8 </tspan>
<tspan x="10" y="3018">    │ └─┬ through2@0.6.5 </tspan>
<tspan x="10" y="3034">    │   └── readable-stream@1.0.34 </tspan>
<tspan x="10" y="3050">    ├─┬ mkdirp@0.5.1 </tspan>
<tspan x="10" y="3066">    │ └── minimist@0.0.8 </tspan>
<tspan x="10" y="3082">    ├── object-assign@2.1.1 </tspan>
<tspan x="10" y="3098">    ├─┬ strip-bom@1.0.0 </tspan>
<tspan x="10" y="3114">    │ ├── first-chunk-stream@1.0.0 </tspan>
<tspan x="10" y="3130">    │ └── is-utf8@0.2.1 </tspan>
<tspan x="10" y="3146">    ├─┬ through2@0.6.5 </tspan>
<tspan x="10" y="3162">    │ └── readable-stream@1.0.34 </tspan>
<tspan x="10" y="3178">    └─┬ vinyl@0.4.6 </tspan>
<tspan x="10" y="3194">      └── clone@0.2.0</tspan>
</text>
</svg>
